<?xml version="1.0" encoding="utf-8"?>
<!-- Generator: Adobe Illustrator 19.2.1, SVG Export Plug-In . SVG Version: 6.00 Build 0)  -->
<svg version="1.1" id="Layer_1" xmlns="http://www.w3.org/2000/svg" xmlns:xlink="http://www.w3.org/1999/xlink" x="0px" y="0px"
	 viewBox="0 0 14 19.5" style="enable-background:new 0 0 14 19.5;" xml:space="preserve">
<style type="text/css">
	.st0{fill:#0432DA;}
</style>
<g>
	<g>
		<path class="st0" d="M12.4,0H1.6C0.7,0,0,0.7,0,1.6v16.3c0,0.9,0.7,1.6,1.6,1.6h10.8c0.9,0,1.6-0.7,1.6-1.6V1.6
			C14,0.7,13.3,0,12.4,0z M13.2,17.9c0,0.4-0.3,0.8-0.8,0.8H1.6c-0.4,0-0.8-0.3-0.8-0.8V1.6c0-0.4,0.3-0.8,0.8-0.8h10.8
			c0.4,0,0.8,0.3,0.8,0.8V17.9z M3.7,8.1C3,8.1,2.5,8.7,2.5,9.3c0,0.7,0.5,1.2,1.2,1.2c0.7,0,1.2-0.5,1.2-1.2
			C4.9,8.7,4.4,8.1,3.7,8.1z M3.7,9.7c-0.2,0-0.4-0.2-0.4-0.4S3.5,9,3.7,9c0.2,0,0.4,0.2,0.4,0.4S3.9,9.7,3.7,9.7z M7,8.1
			c-0.7,0-1.2,0.5-1.2,1.2c0,0.7,0.5,1.2,1.2,1.2c0.7,0,1.2-0.5,1.2-1.2C8.2,8.7,7.7,8.1,7,8.1z M7,9.7c-0.2,0-0.4-0.2-0.4-0.4
			S6.8,9,7,9c0.2,0,0.4,0.2,0.4,0.4S7.2,9.7,7,9.7z M10.3,8.1c-0.7,0-1.2,0.5-1.2,1.2c0,0.7,0.5,1.2,1.2,1.2c0.7,0,1.2-0.5,1.2-1.2
			C11.5,8.7,11,8.1,10.3,8.1z M10.3,9.7c-0.2,0-0.4-0.2-0.4-0.4S10.1,9,10.3,9s0.4,0.2,0.4,0.4S10.5,9.7,10.3,9.7z M3.7,11.4
			c-0.7,0-1.2,0.5-1.2,1.2c0,0.7,0.5,1.2,1.2,1.2c0.7,0,1.2-0.5,1.2-1.2C4.9,11.9,4.4,11.4,3.7,11.4z M3.7,13
			c-0.2,0-0.4-0.2-0.4-0.4c0-0.2,0.2-0.4,0.4-0.4c0.2,0,0.4,0.2,0.4,0.4C4.1,12.8,3.9,13,3.7,13z M7,11.4c-0.7,0-1.2,0.5-1.2,1.2
			c0,0.7,0.5,1.2,1.2,1.2c0.7,0,1.2-0.5,1.2-1.2C8.2,11.9,7.7,11.4,7,11.4z M7,13c-0.2,0-0.4-0.2-0.4-0.4c0-0.2,0.2-0.4,0.4-0.4
			c0.2,0,0.4,0.2,0.4,0.4C7.4,12.8,7.2,13,7,13z M10.3,11.4c-0.7,0-1.2,0.5-1.2,1.2c0,0.7,0.5,1.2,1.2,1.2c0.7,0,1.2-0.5,1.2-1.2
			C11.5,11.9,11,11.4,10.3,11.4z M10.3,13c-0.2,0-0.4-0.2-0.4-0.4c0-0.2,0.2-0.4,0.4-0.4s0.4,0.2,0.4,0.4C10.7,12.8,10.5,13,10.3,13
			z M3.7,14.6c-0.7,0-1.2,0.5-1.2,1.2C2.5,16.5,3,17,3.7,17c0.7,0,1.2-0.5,1.2-1.2C4.9,15.2,4.4,14.6,3.7,14.6z M3.7,16.2
			c-0.2,0-0.4-0.2-0.4-0.4c0-0.2,0.2-0.4,0.4-0.4c0.2,0,0.4,0.2,0.4,0.4C4.1,16,3.9,16.2,3.7,16.2z M7,14.6c-0.7,0-1.2,0.5-1.2,1.2
			C5.8,16.5,6.3,17,7,17c0.7,0,1.2-0.5,1.2-1.2C8.2,15.2,7.7,14.6,7,14.6z M7,16.2c-0.2,0-0.4-0.2-0.4-0.4c0-0.2,0.2-0.4,0.4-0.4
			c0.2,0,0.4,0.2,0.4,0.4C7.4,16,7.2,16.2,7,16.2z M10.3,14.6c-0.7,0-1.2,0.5-1.2,1.2c0,0.7,0.5,1.2,1.2,1.2c0.7,0,1.2-0.5,1.2-1.2
			C11.5,15.2,11,14.6,10.3,14.6z M10.3,16.2c-0.2,0-0.4-0.2-0.4-0.4c0-0.2,0.2-0.4,0.4-0.4s0.4,0.2,0.4,0.4
			C10.7,16,10.5,16.2,10.3,16.2z M11.1,2.5H2.8c-0.2,0-0.4,0.2-0.4,0.4v3.2c0,0.2,0.2,0.4,0.4,0.4h8.3c0.2,0,0.4-0.2,0.4-0.4V2.9
			C11.5,2.6,11.3,2.5,11.1,2.5z M10.7,5.7H3.3V3.3h7.4V5.7z"/>
	</g>
</g>
</svg>
