<?xml version="1.0" encoding="utf-8"?>
<!-- Generator: Adobe Illustrator 18.1.0, SVG Export Plug-In . SVG Version: 6.00 Build 0)  -->
<svg version="1.1" id="Layer_1" xmlns="http://www.w3.org/2000/svg" xmlns:xlink="http://www.w3.org/1999/xlink" x="0px" y="0px"
	 viewBox="0 0 595.3 595.3" enable-background="new 0 0 595.3 595.3" xml:space="preserve">
<g>
	<g>
		<path fill="#0327AB" d="M59.5,238.1C27.8,238.1,0,265.9,0,297.6s27.8,59.5,59.5,59.5s59.5-27.8,59.5-59.5S91.3,238.1,59.5,238.1z
			 M297.6,238.1c-31.7,0-59.5,27.8-59.5,59.5s27.8,59.5,59.5,59.5s59.5-27.8,59.5-59.5S329.4,238.1,297.6,238.1z M535.8,238.1
			c-31.7,0-59.5,27.8-59.5,59.5s27.8,59.5,59.5,59.5c31.7,0,59.5-27.8,59.5-59.5S567.5,238.1,535.8,238.1z"/>
	</g>
</g>
</svg>
