<?xml version="1.0" encoding="utf-8"?>
<!-- Generator: Adobe Illustrator 18.1.0, SVG Export Plug-In . SVG Version: 6.00 Build 0)  -->
<svg version="1.1" id="Layer_1" xmlns="http://www.w3.org/2000/svg" xmlns:xlink="http://www.w3.org/1999/xlink" x="0px" y="0px"
	 viewBox="0 0 595.3 595.3" enable-background="new 0 0 595.3 595.3" xml:space="preserve">
<g>
	<g>
		<path fill="#0432DA" d="M594.2,553.9V45.7c-2.1-8.6,3.2-68.8-51.6-29c-53.7,35.5-199.9,133.2-199.9,133.2s-37.6,35.5-91.3,0
			C180.5,103.7,48.4,16.7,48.4,16.7S2.1-21,0,42.4c0,120.3,0,515.8,0,515.8s0,44.1,39.8,30.1c18.3-11.8,38.7-25.8,55.9-36.5
			c27.9-23.6,27.9-59.1,27.9-59.1s0-39.8,0-58c0-64.5,43-19.3,43-19.3s58,38.7,83.8,56.9c51.6,26.9,86,2.1,86,2.1
			s74.1-49.4,102.1-68.8c34.4-26.9,32.2,27.9,32.2,27.9v40.8c0,0-4.3,41.9,27.9,69.8c16.1,12.9,35.5,27.9,52.7,41.9
			C602.8,608.7,594.2,553.9,594.2,553.9z M442.7,283.1l-112.8,75.2c0,0-32.2,20.4-69.8,0C225.6,334.7,144,281,144,281
			s-21.5-6.4-21.5-38.7c0-8.6,0-27.9,0-27.9s-2.1-41.9,30.1-16.1c29,19.3,74.1,49.4,106.4,70.9c33.3,25.8,72,0,72,0
			s73.1-49.4,119.3-80.6c20.4-15,17.2,11.8,17.2,11.8v34.4C467.4,236.9,471.7,262.7,442.7,283.1z"/>
	</g>
</g>
</svg>
