<?xml version="1.0" encoding="utf-8"?>
<!-- Generator: Adobe Illustrator 19.2.1, SVG Export Plug-In . SVG Version: 6.00 Build 0)  -->
<svg version="1.1" id="Layer_1" xmlns="http://www.w3.org/2000/svg" xmlns:xlink="http://www.w3.org/1999/xlink" x="0px" y="0px"
	 viewBox="0 0 20.2 20.2" style="enable-background:new 0 0 20.2 20.2;" xml:space="preserve">
<style type="text/css">
	.st0{fill:#3B3B3B;}
</style>
<path class="st0" d="M10.1,0C4.5,0,0,4.5,0,10.1c0,5.6,4.5,10.1,10.1,10.1c5.6,0,10.1-4.5,10.1-10.1C20.2,4.5,15.7,0,10.1,0z
	 M15,17.8c-1,0.6-1.9,1.1-3,1.3c-2.9,0.6-5.4-0.1-7.7-1.9c0,0-0.1-0.1-0.1-0.1c0.3-0.2,0.6-0.3,0.9-0.5c0.6-0.3,1.3-0.5,1.9-0.8
	c0.5-0.2,1-0.5,1.4-1c0.1-0.2,0.3-0.4,0.3-0.7c0-0.6,0-1.1,0-1.7c0,0,0-0.1-0.1-0.1c-0.5-0.4-0.7-1-0.8-1.6c0-0.1,0-0.2,0-0.2
	c0-0.2-0.1-0.3-0.3-0.3c-0.1,0-0.2-0.1-0.2-0.1C7.1,9.9,7,9.6,7,9.3C7,9.2,7,9.1,7.1,9c0.1-0.1,0.2-0.2,0.1-0.4C7.1,8,7,7.4,6.9,6.8
	C6.9,6.2,7,5.6,7.1,5.1c0.3-0.7,0.8-1.2,1.5-1.4c0.7-0.2,1.4-0.3,2.2-0.2c0.3,0.1,0.6,0.2,0.8,0.5c0,0.1,0.1,0.1,0.2,0.1
	c1,0.1,1.4,0.8,1.5,1.7c0.1,0.9-0.1,1.8-0.3,2.7c0,0,0,0.1,0,0.1C12.8,8.8,12.9,8.9,13,9c0.2,0.1,0.2,0.3,0.2,0.4
	c0,0.2-0.1,0.3-0.1,0.5c-0.1,0.2-0.2,0.3-0.4,0.3c-0.1,0-0.2,0.1-0.2,0.2c-0.1,0.6-0.2,1.1-0.5,1.6c0,0.1-0.1,0.2-0.2,0.2
	c-0.2,0.1-0.2,0.3-0.2,0.5c0,0.4,0,0.8,0,1.3c0,0.6,0.3,1,0.7,1.3c0.5,0.4,1,0.6,1.6,0.8c0.6,0.3,1.2,0.5,1.8,0.8
	c0.1,0,0.2,0.1,0.3,0.2C15.7,17.3,15.4,17.6,15,17.8z M16.7,16.5c-0.6-0.3-1.2-0.6-1.8-0.9c-0.5-0.2-1-0.4-1.5-0.7
	c-0.1-0.1-0.3-0.1-0.4-0.2c-0.4-0.2-0.6-0.6-0.5-1c0,0,0-0.1,0-0.1c0-0.5,0-0.9,0.3-1.3c0.3-0.3,0.3-0.8,0.5-1.2
	c0-0.1,0.1-0.1,0.1-0.2c0.1-0.2,0.3-0.3,0.4-0.5C14,10,14.1,9.5,14,9.1c0-0.1,0-0.1-0.1-0.2c-0.2-0.3-0.1-0.5-0.1-0.8
	c0.2-0.7,0.3-1.4,0.2-2.1c0-0.7-0.2-1.4-0.7-1.9c-0.3-0.3-0.7-0.5-1.1-0.6c-0.1,0-0.1,0-0.2-0.1c-0.4-0.4-0.9-0.6-1.5-0.7
	c-0.9-0.1-1.8,0-2.7,0.4c-0.9,0.4-1.4,1.1-1.6,2C6,6.1,6.1,7,6.3,7.9c0,0.1,0,0.1,0,0.2c0.1,0.3,0.1,0.5-0.1,0.8
	c-0.3,0.6,0,1.6,0.5,2c0.1,0,0.1,0.1,0.1,0.2c0.2,0.6,0.4,1.2,0.8,1.7c0,0,0.1,0.1,0.1,0.2c0,0.4,0,0.8,0,1.2c0,0.1-0.1,0.3-0.2,0.4
	c-0.3,0.2-0.6,0.4-0.9,0.6c-0.7,0.3-1.5,0.6-2.2,0.9c-0.3,0.1-0.6,0.3-0.9,0.5C0.3,13.3-0.2,7.7,3.3,3.9C6.9,0,13-0.1,16.6,3.6
	C20.4,7.4,20,13.3,16.7,16.5z"/>
</svg>
