<?xml version="1.0" encoding="utf-8"?>
<!-- Generator: Adobe Illustrator 18.1.0, SVG Export Plug-In . SVG Version: 6.00 Build 0)  -->
<svg version="1.1" id="Layer_1" xmlns="http://www.w3.org/2000/svg" xmlns:xlink="http://www.w3.org/1999/xlink" x="0px" y="0px"
	 viewBox="0 0 595.3 595.3" enable-background="new 0 0 595.3 595.3" xml:space="preserve">
<path fill="#0327AB" d="M297.6,0C132.6,0,0,132.6,0,297.6s132.6,297.6,297.6,297.6s297.6-132.6,297.6-297.6S462.7,0,297.6,0z
	 M442,524.6c-29.5,17.7-56,32.4-88.4,38.3c-85.5,17.7-159.1-2.9-226.9-56l-2.9-2.9c8.8-5.9,17.7-8.8,26.5-14.7
	c17.7-8.8,38.3-14.7,56-23.6c14.7-5.9,29.5-14.7,41.3-29.5c2.9-5.9,8.8-11.8,8.8-20.6c0-17.7,0-32.4,0-50.1c0,0,0-2.9-2.9-2.9
	c-14.7-11.8-20.6-29.5-23.6-47.2c0-2.9,0-5.9,0-5.9c0-5.9-2.9-8.8-8.8-8.8c-2.9,0-5.9-2.9-5.9-2.9c-5.9-5.9-8.8-14.7-8.8-23.6
	c0-2.9,0-5.9,2.9-8.8c2.9-2.9,5.9-5.9,2.9-11.8c-2.9-17.7-5.9-35.4-8.8-53c0-17.7,2.9-35.4,5.9-50.1c8.8-20.6,23.6-35.4,44.2-41.3
	c20.6-5.9,41.3-8.8,64.8-5.9c8.8,2.9,17.7,5.9,23.6,14.7c0,2.9,2.9,2.9,5.9,2.9c29.5,2.9,41.3,23.6,44.2,50.1
	c2.9,26.5-2.9,53-8.8,79.6v2.9c-5.9,5.9-2.9,8.8,0,11.8c5.9,2.9,5.9,8.8,5.9,11.8c0,5.9-2.9,8.8-2.9,14.7c-2.9,5.9-5.9,8.8-11.8,8.8
	c-2.9,0-5.9,2.9-5.9,5.9c-2.9,17.7-5.9,32.4-14.7,47.2c0,2.9-2.9,5.9-5.9,5.9c-5.9,2.9-5.9,8.8-5.9,14.7c0,11.8,0,23.6,0,38.3
	c0,17.7,8.8,29.5,20.6,38.3c14.7,11.8,29.5,17.7,47.2,23.6c17.7,8.8,35.4,14.7,53,23.6c2.9,0,5.9,2.9,8.8,5.9
	C462.7,509.8,453.8,518.7,442,524.6z M492.1,486.2c-17.7-8.8-35.4-17.7-53-26.5c-14.7-5.9-29.5-11.8-44.2-20.6
	c-2.9-2.9-8.8-2.9-11.8-5.9c-11.8-5.9-17.7-17.7-14.7-29.5v-2.9c0-14.7,0-26.5,8.8-38.3c8.8-8.8,8.8-23.6,14.7-35.4
	c0-2.9,2.9-2.9,2.9-5.9c2.9-5.9,8.8-8.8,11.8-14.7c5.9-11.8,8.8-26.5,5.9-38.3c0-2.9,0-2.9-2.9-5.9c-5.9-8.8-2.9-14.7-2.9-23.6
	c5.9-20.6,8.8-41.3,5.9-61.9c0-20.6-5.9-41.3-20.6-56c-8.8-8.8-20.6-14.7-32.4-17.7c-2.9,0-2.9,0-5.9-2.9
	c-11.8-11.8-26.5-17.7-44.2-20.6c-26.5-2.9-53,0-79.6,11.8s-41.3,32.4-47.2,58.9c-5.9,29.5-2.9,56,2.9,82.5c0,2.9,0,2.9,0,5.9
	c2.9,8.8,2.9,14.7-2.9,23.6c-8.8,17.7,0,47.2,14.7,58.9c2.9,0,2.9,2.9,2.9,5.9c5.9,17.7,11.8,35.4,23.6,50.1c0,0,2.9,2.9,2.9,5.9
	c0,11.8,0,23.6,0,35.4c0,2.9-2.9,8.8-5.9,11.8c-8.8,5.9-17.7,11.8-26.5,17.7c-20.6,8.8-44.2,17.7-64.8,26.5
	c-8.8,2.9-17.7,8.8-26.5,14.7c-94.3-97.2-109-262.3-5.9-374.3C203.3,0,383.1-2.9,489.2,106.1C601.2,218.1,589.4,391.9,492.1,486.2z"
	/>
</svg>
