<svg xmlns="http://www.w3.org/2000/svg" viewBox="0 0 144.9 68.6"><path fill="none" stroke="#000" stroke-width=".5" stroke-miterlimit="10" d="M0 3l13.6.9v57.2l-8 .7M123.2 11.6l7.3.6v37.4l-7.3.7zM140.6 12.8l-3.7-.2v36.5l8-.5"/><g fill="none" stroke="#000" stroke-width=".5" stroke-miterlimit="10"><path d="M12.4 3.8V1.2l2.5-.9 11 .8v61.6l-11 1.2-2.5-1.8v-.9M14.9.3v63.6M126.1 11.8v-1.7l5.6-.5 5.2.4v41.8l-5.2.5-5.6-.9V50M131.7 52.3V9.6"/><g><path d="M92.6 8.7V7.5l5-.6 6.6.5v2.2M97.6 6.9v2.2"/></g><g><path d="M92.6 53.9v.6l5 1.2 6.6-.7v-2.1M97.6 55.7v-2.2"/></g></g><path fill="none" stroke="#000" stroke-miterlimit="10" d="M40.1 4.5v54.2l83.1-7.5V10.9z"/><path fill="none" stroke="#ED1C24" stroke-width=".5" stroke-miterlimit="10" d="M40.3 65.1l82.3-9.9"/><path fill="#ED1C24" d="M42.4 67.1l.3-.4-2.2-1.6 1.8-2.1-.4-.4-2.2 2.6zM121.2 57.5l-.4-.4 1.6-1.9-2-1.4.3-.4 2.5 1.8z"/><path fill="none" stroke="#ED1C24" stroke-width=".5" stroke-miterlimit="10" d="M34.8 4.6V59"/><path fill="#ED1C24" d="M32.6 6.5l.4.3 1.8-1.9 1.9 1.9.4-.3L34.8 4zM32.6 57.1l.4-.3 1.8 2 1.9-2 .4.3-2.3 2.5z"/><text transform="translate(28.9715 34.2153)" fill="#ED1C24" font-family="'MyriadPro-Regular'" font-size="8">a</text><text transform="translate(84.2631 66.8819)" fill="#ED1C24" font-family="'MyriadPro-Regular'" font-size="7">b</text></svg>