<?xml version="1.0" encoding="utf-8"?>
<!-- Generator: Adobe Illustrator 18.1.0, SVG Export Plug-In . SVG Version: 6.00 Build 0)  -->
<svg version="1.1" id="Layer_1" xmlns="http://www.w3.org/2000/svg" xmlns:xlink="http://www.w3.org/1999/xlink" x="0px" y="0px"
	 viewBox="0 0 184 64" enable-background="new 0 0 184 64" xml:space="preserve">
<line fill-rule="evenodd" clip-rule="evenodd" fill="#FFFFFF" x1="-5" y1="146.8" x2="-5" y2="-46"/>
<line fill-rule="evenodd" clip-rule="evenodd" fill="#FFFFFF" x1="187.8" y1="-46" x2="187.8" y2="146.8"/>
<polygon fill-rule="evenodd" clip-rule="evenodd" fill="#005694" points="53.8,57.1 69.3,5.8 83.2,5.8 67.6,57.1 53.8,57.1 "/>
<path fill-rule="evenodd" clip-rule="evenodd" fill="#005694" d="M47.5,5.9L35.1,27.6c-3.2,5.7-5,8.6-5.9,12.2H29
	c0.2-4.6-0.4-10.2-0.5-13.3L27.1,5.9H3.7L3.5,7.2c6,0,9.6,3,10.5,9.2l4.6,40.7H33L62,5.9H47.5L47.5,5.9z"/>
<path fill-rule="evenodd" clip-rule="evenodd" fill="#005694" d="M155.4,57.1l-0.4-7.6l-17.3,0l-3.5,7.6h-15.1l27.3-51.2h18.5
	l4.6,51.2H155.4L155.4,57.1z M153.8,26.9c-0.2-3.8-0.3-8.9,0-12h-0.2c-0.8,2.5-4.5,10.2-6.1,13.9L142.4,40h12.2L153.8,26.9
	L153.8,26.9z"/>
<path fill-rule="evenodd" clip-rule="evenodd" fill="#005694" d="M97.7,58.6c-9.8,0-16.3-3.1-20.9-5.9l6.6-10.1c4.2,2.3,7.4,5,15,5
	c2.4,0,4.8-0.6,6.1-2.9c1.9-3.3-0.4-5.1-5.9-8.2l-2.7-1.7c-8-5.5-11.5-10.7-7.7-19.8C90.6,9.1,97,4.7,107.5,4.7
	c7.3,0,14.1,3.1,18,6.2l-7.6,8.9c-3.9-3.1-7.1-4.7-10.8-4.7c-2.9,0-5.2,1.1-5.9,2.7c-1.4,2.9,0.5,4.8,4.7,7.4l3.2,2
	c9.8,6.2,12.1,12.6,9.6,18.6C114.6,56.3,106.3,58.6,97.7,58.6L97.7,58.6z"/>
<path fill-rule="evenodd" clip-rule="evenodd" fill="#005694" d="M173.3,13.8h-0.9V8.2h2.1c1.3,0,2,0.5,2,1.6c0,1-0.6,1.4-1.4,1.5
	l1.6,2.4h-1l-1.4-2.4h-0.9V13.8L173.3,13.8z M174.4,10.6c0.7,0,1.3-0.1,1.3-0.9c0-0.7-0.7-0.8-1.2-0.8h-1.1v1.6H174.4L174.4,10.6z
	 M174.3,15.9c-2.9,0-4.9-2.2-4.9-5c0-3,2.3-5,4.9-5c2.6,0,4.9,2,4.9,5C179.3,13.9,177,15.9,174.3,15.9L174.3,15.9z M174.3,6.8
	c-2.2,0-3.9,1.7-3.9,4.1c0,2.3,1.5,4.1,3.9,4.1c2.1,0,3.8-1.7,3.8-4.1C178.2,8.5,176.5,6.8,174.3,6.8L174.3,6.8z"/>
</svg>
