<?xml version="1.0" encoding="utf-8"?>
<!-- Generator: Adobe Illustrator 18.1.0, SVG Export Plug-In . SVG Version: 6.00 Build 0)  -->
<svg version="1.1" id="Ñëîé_1" xmlns="http://www.w3.org/2000/svg" xmlns:xlink="http://www.w3.org/1999/xlink" x="0px" y="0px"
	 viewBox="0 0 108 63.5" enable-background="new 0 0 108 63.5" xml:space="preserve">
<g>
	<path fill-rule="evenodd" clip-rule="evenodd" fill="#0761AF" d="M26.9,10.1c4.1,0,7.9,0.9,11.3,2.6c0.5,0.3,1.1,0.5,1.6,0.8
		l-2.4,2.1L33.8,12l-6,5.4l-3.6-3.9L13,23.7l7.2,7.9l-2.8,2.5l7.1,8l-2.8,2.5l10.1,11.3l6-5.5l5.2,5.9c-1,0.8-2.2,1.6-3.4,2.3
		c-3.8,2.1-8.1,3.4-12.7,3.4C12.6,61.9,1,50.2,1,36S12.6,10.1,26.9,10.1L26.9,10.1z"/>
	<polygon fill-rule="evenodd" clip-rule="evenodd" fill="#0761AF" points="22.1,34.4 28.3,28.8 33.8,35 27.7,40.5 22.1,34.4 	"/>
	<polygon fill-rule="evenodd" clip-rule="evenodd" fill="#0761AF" points="26.5,45 32.7,39.5 38.2,45.6 32,51.1 26.5,45 	"/>
	<polygon fill-rule="evenodd" clip-rule="evenodd" fill="#0761AF" points="17.7,23.9 23.9,18.3 29.4,24.5 23.3,30 17.7,23.9 	"/>
	<polygon fill-rule="evenodd" clip-rule="evenodd" fill="#0761AF" points="29,20.9 33.6,16.7 37.8,21.3 33.2,25.5 29,20.9 	"/>
	<polygon fill-rule="evenodd" clip-rule="evenodd" fill="#0761AF" points="37.2,39.9 41.8,35.8 46,40.4 41.4,44.5 37.2,39.9 	"/>
	<polygon fill-rule="evenodd" clip-rule="evenodd" fill="#0761AF" points="41.3,49.2 45.9,45.1 50,49.7 45.4,53.8 41.3,49.2 	"/>
	<polygon fill-rule="evenodd" clip-rule="evenodd" fill="#0761AF" points="43.1,27.9 46.2,25.1 49,28.2 45.9,30.9 43.1,27.9 	"/>
	<polygon fill-rule="evenodd" clip-rule="evenodd" fill="#0761AF" points="39.2,18.7 42.3,16 45,19 42,21.8 39.2,18.7 	"/>
	<polygon fill-rule="evenodd" clip-rule="evenodd" fill="#0761AF" points="47.1,37 50.1,34.2 52.9,37.3 49.8,40.1 47.1,37 	"/>
	<polygon fill-rule="evenodd" clip-rule="evenodd" fill="#0761AF" points="33.3,30.2 37.9,26 42,30.6 37.4,34.8 33.3,30.2 	"/>
</g>
</svg>
