<?xml version="1.0" encoding="utf-8"?>
<!-- Generator: Adobe Illustrator 19.2.1, SVG Export Plug-In . SVG Version: 6.00 Build 0)  -->
<svg version="1.1" id="Layer_1" xmlns="http://www.w3.org/2000/svg" xmlns:xlink="http://www.w3.org/1999/xlink" x="0px" y="0px"
	 viewBox="0 0 34.4 35.2" style="enable-background:new 0 0 34.4 35.2;" xml:space="preserve">
<style type="text/css">
	.st0{fill:#0079FF;}
</style>
<g>
	<g>
		<path class="st0" d="M13.5,11c0.1,0.1,0.3,0.1,0.4,0.1c0.3,0,0.5-0.1,0.7-0.4L19.5,2c0.2-0.4,0.7-0.5,1.1-0.3l1.9,1.1l-4.7,7.9
			c-0.2,0.4-0.1,0.9,0.3,1.1c0.1,0.1,0.3,0.1,0.4,0.1c0.3,0,0.5-0.1,0.7-0.4l4.7-7.9l4.4,2.5c0.4,0.2,0.5,0.7,0.3,1.1L27,9.9
			c-0.2,0.4-0.1,0.9,0.3,1.1c0.4,0.2,0.9,0.1,1.1-0.3L29.9,8c0.7-1.2,0.3-2.6-0.9-3.3l-7.7-4.4c-0.6-0.3-1.2-0.4-1.8-0.2
			c-0.6,0.2-1.1,0.6-1.5,1.1l-4.9,8.7C12.9,10.3,13.1,10.8,13.5,11z M28,27.2c-2.2,0-4,1.8-4,4s1.8,4,4,4c2.2,0,4-1.8,4-4
			S30.2,27.2,28,27.2z M28,33.6c-1.3,0-2.4-1.1-2.4-2.4s1.1-2.4,2.4-2.4s2.4,1.1,2.4,2.4S29.3,33.6,28,33.6z M16,27.2
			c-2.2,0-4,1.8-4,4s1.8,4,4,4c2.2,0,4-1.8,4-4S18.2,27.2,16,27.2z M16,33.6c-1.3,0-2.4-1.1-2.4-2.4s1.1-2.4,2.4-2.4
			s2.4,1.1,2.4,2.4S17.3,33.6,16,33.6z M33.8,11.1c-0.4-0.1-0.9,0.2-1,0.6l-0.6,2.6H9.6L5.4,0.7H0.8C0.4,0.7,0,1,0,1.5
			c0,0.4,0.4,0.8,0.8,0.8h3.4l6.7,21.6c0.3,1,1.2,1.7,2.3,1.7h16c1.1,0,2.1-0.8,2.3-1.8l2.9-11.6C34.5,11.7,34.2,11.2,33.8,11.1z
			 M29.9,23.4c-0.1,0.4-0.4,0.6-0.8,0.6h-16c-0.4,0-0.7-0.2-0.8-0.6l-0.3-1h18.1L29.9,23.4z M30.6,20.8c-0.1,0-0.1,0-0.2,0H12
			c-0.1,0-0.3,0-0.4,0.1l-0.5-1.7H31L30.6,20.8z M31.4,17.5H10.6l-0.5-1.6h21.7L31.4,17.5z"/>
	</g>
</g>
</svg>
