<?xml version="1.0" encoding="utf-8"?>
<!-- Generator: Adobe Illustrator 19.2.1, SVG Export Plug-In . SVG Version: 6.00 Build 0)  -->
<svg version="1.1" id="Layer_1" xmlns="http://www.w3.org/2000/svg" xmlns:xlink="http://www.w3.org/1999/xlink" x="0px" y="0px"
	 viewBox="0 0 36.8 35.4" style="enable-background:new 0 0 36.8 35.4;" xml:space="preserve">
<style type="text/css">
	.st0{fill:#0079FF;}
</style>
<g>
	<g>
		<path class="st0" d="M28,18.5c-1.3,0-2.4,1.1-2.4,2.4c0,1.3,1.1,2.4,2.4,2.4s2.4-1.1,2.4-2.4C30.4,19.6,29.3,18.5,28,18.5z
			 M28,21.7c-0.4,0-0.8-0.4-0.8-0.8c0-0.4,0.4-0.8,0.8-0.8s0.8,0.4,0.8,0.8C28.8,21.4,28.4,21.7,28,21.7z M35.2,16.2V9.7
			c0-1.3-1.1-2.4-2.4-2.4H32V2.4C32,1.1,30.9,0,29.6,0H8.8C7.5,0,6.4,1.1,6.4,2.4v1C5.7,3.6,5.1,4.3,4.9,5.1l-3,1.1
			C0.8,6.4,0,7.4,0,8.5V33c0,1.3,1.1,2.4,2.4,2.4h30.4c1.3,0,2.4-1.1,2.4-2.4v-7.4c0.9-0.3,1.6-1.2,1.6-2.3v-4.8
			C36.8,17.5,36.1,16.6,35.2,16.2z M8,2.4C8,2,8.4,1.6,8.8,1.6h20.8c0.4,0,0.8,0.4,0.8,0.8v4.9h-0.8c0,0,0,0,0-0.1V5.6
			c0-1.3-1.1-2.4-2.4-2.4H8V2.4z M6.4,7.2V5.6c0-0.4,0.4-0.8,0.8-0.8h20c0.4,0,0.8,0.4,0.8,0.8v1.6c0,0,0,0,0,0.1L6.4,7.2
			C6.4,7.3,6.4,7.3,6.4,7.2z M4.8,6.8v0.5c0,0,0,0,0,0.1H3.4L4.8,6.8z M33.6,33c0,0.4-0.4,0.8-0.8,0.8H2.4c-0.4,0-0.8-0.4-0.8-0.8
			v-24h31.2c0.4,0,0.8,0.4,0.8,0.8v6.4h-8.8c-1.3,0-2.4,1.1-2.4,2.4v4.8c0,1.3,1.1,2.4,2.4,2.4h8.8V33z M35.2,23.3
			c0,0.4-0.4,0.8-0.8,0.8h-9.6c-0.4,0-0.8-0.4-0.8-0.8v-4.8c0-0.4,0.4-0.8,0.8-0.8h9.6c0,0,0,0,0,0c0.4,0,0.8,0.4,0.8,0.8V23.3z"/>
	</g>
</g>
</svg>
