<?xml version="1.0" encoding="utf-8"?>
<!-- Generator: Adobe Illustrator 19.2.1, SVG Export Plug-In . SVG Version: 6.00 Build 0)  -->
<svg version="1.1" id="Layer_1" xmlns="http://www.w3.org/2000/svg" xmlns:xlink="http://www.w3.org/1999/xlink" x="0px" y="0px"
	 viewBox="0 0 13.5 13.5" style="enable-background:new 0 0 13.5 13.5;" xml:space="preserve">
<style type="text/css">
	.st0{fill-rule:evenodd;clip-rule:evenodd;fill:#939393;}
</style>
<g>
	<g>
		<path class="st0" d="M13.2,3.2l-0.8-0.8c0,0,0,0,0,0s0,0,0,0l-2.1-2.1C9.9-0.1,9.3-0.1,9,0.3L0.9,8.3c0,0-0.1,0.1-0.1,0.2L0,13.1
			c0,0.1,0,0.2,0.1,0.3c0.1,0.1,0.1,0.1,0.2,0.1c0,0,0,0,0.1,0L5,12.6c0.1,0,0.1,0,0.2-0.1l8.1-8.1c0.2-0.2,0.3-0.4,0.3-0.6
			C13.5,3.6,13.4,3.4,13.2,3.2z M9.4,0.7c0.1-0.1,0.3-0.1,0.4,0l1.9,1.9l-8.1,8.1c0,0,0,0,0,0L1.6,8.5L9.4,0.7z M2.6,12.5L1,10.9
			l0.3-1.8l3,3L2.6,12.5z M0.9,11.7l1,1l-1.2,0.2L0.9,11.7z M12.8,4.1L5,11.9l-0.8-0.8l0,0L12.2,3l0.6,0.6C12.9,3.8,12.9,4,12.8,4.1
			z"/>
	</g>
</g>
</svg>
