<?xml version="1.0" encoding="utf-8"?>
<!-- Generator: Adobe Illustrator 19.2.1, SVG Export Plug-In . SVG Version: 6.00 Build 0)  -->
<svg version="1.1" id="Layer_1" xmlns="http://www.w3.org/2000/svg" xmlns:xlink="http://www.w3.org/1999/xlink" x="0px" y="0px"
	 viewBox="0 0 17.5 18" style="enable-background:new 0 0 17.5 18;" xml:space="preserve">
<style type="text/css">
	.st0{fill:#939393;}
</style>
<g>
	<g>
		<path class="st0" d="M1.3,9.1h6.3C7.8,9.1,8,9,8,8.8c0-0.2-0.2-0.4-0.4-0.4H1.3l2.9-2.7c0.1-0.1,0.2-0.4,0-0.5C4,5,3.8,5,3.6,5.1
			L0.1,8.5C0,8.6,0,8.7,0,8.8C0,8.9,0,8.9,0.1,9l3.5,3.4c0.1,0.1,0.2,0.1,0.3,0.1c0.1,0,0.2,0,0.3-0.1c0.1-0.1,0.1-0.4,0-0.5
			L1.3,9.1z M17.5,0.3C17.5,0.3,17.5,0.3,17.5,0.3c0-0.1-0.1-0.2-0.1-0.2c0,0,0,0,0,0c0,0,0,0-0.1-0.1c-0.1,0-0.2-0.1-0.3,0H5.6
			C5.4,0,5.2,0.2,5.2,0.4v3.7c0,0.2,0.2,0.4,0.4,0.4C5.8,4.5,6,4.3,6,4.1V0.8h9.4l-4.5,2c-0.1,0.1-0.2,0.2-0.2,0.3v11.8
			c0,0.1,0.1,0.3,0.2,0.3l4.6,2H6v-3.3c0-0.2-0.2-0.4-0.4-0.4c-0.2,0-0.4,0.2-0.4,0.4v3.7c0,0.2,0.2,0.4,0.4,0.4h11.5
			c0.2,0,0.4-0.2,0.4-0.4L17.5,0.3C17.5,0.3,17.5,0.3,17.5,0.3z M16.7,17l-5.4-2.4V3.3l5.4-2.4V17z M12.5,9h1.5
			c0.2,0,0.4-0.2,0.4-0.4c0-0.2-0.2-0.4-0.4-0.4h-1.5c-0.2,0-0.4,0.2-0.4,0.4C12.1,8.8,12.3,9,12.5,9z"/>
	</g>
</g>
</svg>
