<?xml version="1.0" encoding="utf-8"?>
<!-- Generator: Adobe Illustrator 19.2.1, SVG Export Plug-In . SVG Version: 6.00 Build 0)  -->
<svg version="1.1" id="Layer_1" xmlns="http://www.w3.org/2000/svg" xmlns:xlink="http://www.w3.org/1999/xlink" x="0px" y="0px"
	 viewBox="0 0 10.5 17.5" style="enable-background:new 0 0 10.5 17.5;" xml:space="preserve">
<style type="text/css">
	.st0{fill:#0432DA;}
</style>
<g>
	<g>
		<path class="st0" d="M5.3,15.4c0.1,0,0.2-0.1,0.3-0.2c0.2-0.3,4.9-7.4,4.9-10.1C10.5,2.3,8.2,0,5.3,0C2.4,0,0,2.3,0,5.2
			C0,7.9,4.7,15,5,15.3C5,15.4,5.1,15.4,5.3,15.4z M5.3,0.7c2.5,0,4.5,2,4.5,4.4c0,2.1-3.4,7.6-4.5,9.2c-1.1-1.7-4.5-7.1-4.5-9.2
			C0.8,2.7,2.8,0.7,5.3,0.7z M7.2,4.6c0-1-0.8-1.8-1.9-1.8c-1,0-1.9,0.8-1.9,1.8c0,1,0.8,1.8,1.9,1.8C6.3,6.5,7.2,5.7,7.2,4.6z
			 M4.1,4.6c0-0.6,0.5-1.1,1.1-1.1c0.6,0,1.1,0.5,1.1,1.1c0,0.6-0.5,1.1-1.1,1.1C4.6,5.7,4.1,5.2,4.1,4.6z M7.6,13.8
			c-0.2,0-0.4,0.1-0.4,0.3c0,0.2,0.1,0.4,0.3,0.4c1.5,0.3,2,0.8,2,1c0,0.5-1.7,1.2-4.2,1.2S1,16,1,15.6c0-0.2,0.6-0.7,2.1-1
			c0.2,0,0.3-0.2,0.3-0.4c0-0.2-0.2-0.3-0.4-0.3c-1.7,0.3-2.7,1-2.7,1.7c0,1.3,2.5,1.9,5,1.9s5-0.7,5-1.9
			C10.3,14.8,9.3,14.2,7.6,13.8z"/>
	</g>
</g>
</svg>
