<?xml version="1.0" encoding="utf-8"?>
<!-- Generator: Adobe Illustrator 19.2.1, SVG Export Plug-In . SVG Version: 6.00 Build 0)  -->
<svg version="1.1" id="Layer_1" xmlns="http://www.w3.org/2000/svg" xmlns:xlink="http://www.w3.org/1999/xlink" x="0px" y="0px"
	 viewBox="0 0 25 25" style="enable-background:new 0 0 25 25;" xml:space="preserve">
<style type="text/css">
	.st0{fill:#0e2a91;}
</style>
<path class="st0" d="M13.7,15.2v-0.5c0-0.3,0.1-0.6,0.2-0.8c0.1-0.2,0.4-0.5,0.9-0.8c0.7-0.5,1.2-1,1.5-1.4c0.3-0.4,0.4-0.9,0.4-1.5
	c0-0.9-0.3-1.5-0.9-2.1c-0.6-0.5-1.5-0.8-2.6-0.8c-1.3,0-2.5,0.3-3.7,1l0.9,1.7c1-0.5,1.9-0.8,2.7-0.8c0.4,0,0.8,0.1,1,0.3
	c0.3,0.2,0.4,0.4,0.4,0.8c0,0.3-0.1,0.6-0.3,0.8c-0.2,0.2-0.5,0.6-1.1,1c-0.6,0.4-1,0.8-1.2,1.2c-0.2,0.4-0.3,0.8-0.3,1.3v0.6H13.7z
	 M11.8,18.9c0.2,0.2,0.6,0.3,1,0.3c0.4,0,0.8-0.1,1-0.4c0.2-0.2,0.4-0.6,0.4-1c0-0.4-0.1-0.8-0.4-1c-0.2-0.2-0.6-0.3-1-0.3
	c-0.4,0-0.8,0.1-1,0.3c-0.2,0.2-0.4,0.6-0.4,1C11.4,18.3,11.5,18.6,11.8,18.9z"/>
<g>
	<path class="st0" d="M12.5,2C18.3,2,23,6.7,23,12.5S18.3,23,12.5,23S2,18.3,2,12.5S6.7,2,12.5,2 M12.5,0C5.6,0,0,5.6,0,12.5
		S5.6,25,12.5,25S25,19.4,25,12.5S19.4,0,12.5,0L12.5,0z"/>
</g>
</svg>
