<?xml version="1.0" encoding="utf-8"?>
<!-- Generator: Adobe Illustrator 19.2.1, SVG Export Plug-In . SVG Version: 6.00 Build 0)  -->
<svg version="1.1" id="Layer_1" xmlns="http://www.w3.org/2000/svg" xmlns:xlink="http://www.w3.org/1999/xlink" x="0px" y="0px"
	 viewBox="0 0 15 14" style="enable-background:new 0 0 15 14;" xml:space="preserve">
<style type="text/css">
	.st0{fill:#0079FF;}
</style>
<path class="st0" d="M14.9,9.7l-1.4-2.3c0,0,0,0,0,0c0,0,0,0,0-0.1c0,0,0,0-0.1,0c0,0,0,0-0.1,0c0,0,0,0-0.1,0c0,0,0,0,0,0
	c0,0,0,0,0,0c0,0-0.1,0-0.1,0c0,0,0,0-0.1,0c0,0,0,0,0,0l-2.2,1.4c-0.2,0.1-0.2,0.3-0.1,0.5c0.1,0.2,0.3,0.2,0.5,0.1l1.5-1
	c-0.6,3.1-3.4,5.2-6.5,5C2.9,13,0.4,9.9,0.7,6.5C1,3,4,0.4,7.4,0.7c1.6,0.1,3.1,0.9,4.1,2.1C11.6,3,11.8,3,12,2.9
	c0.1-0.1,0.2-0.4,0-0.5C10.8,1,9.2,0.2,7.4,0C3.7-0.3,0.3,2.6,0,6.4c-0.3,3.8,2.5,7.2,6.2,7.6c0.2,0,0.4,0,0.6,0
	c3.2,0,5.9-2.3,6.6-5.4l0.9,1.5c0.1,0.1,0.2,0.2,0.3,0.2c0.1,0,0.1,0,0.2-0.1C15,10.1,15,9.8,14.9,9.7z"/>
</svg>
