<?xml version="1.0" encoding="utf-8"?>
<!-- Generator: Adobe Illustrator 19.2.1, SVG Export Plug-In . SVG Version: 6.00 Build 0)  -->
<svg version="1.1" id="Layer_1" xmlns="http://www.w3.org/2000/svg" xmlns:xlink="http://www.w3.org/1999/xlink" x="0px" y="0px"
	 viewBox="0 0 24 29" style="enable-background:new 0 0 24 29;" xml:space="preserve">
<style type="text/css">
	.st0{fill-rule:evenodd;clip-rule:evenodd;fill:#E03833;}
</style>
<g>
	<g>
		<path class="st0" d="M23.7,7.8l-7.6-7.6C16.1,0.1,15.9,0,15.7,0H1.9C0.8,0,0,0.9,0,1.9v25.2c0,1,0.8,1.9,1.9,1.9H22
			c1,0,1.9-0.8,1.9-1.9V8.2C23.9,8,23.8,7.9,23.7,7.8z M16.4,2.2l5.4,5.4h-5.4V2.2z M22.7,27.1c0,0.3-0.3,0.6-0.6,0.6H1.9
			c-0.3,0-0.6-0.3-0.6-0.6V1.9c0-0.3,0.3-0.6,0.6-0.6h13.2v6.9c0,0.3,0.3,0.6,0.6,0.6h6.9V27.1z M12.7,14.7c0.3-1.5,0.5-2.8,0.5-3.4
			c0.1-0.8-0.1-1.6-0.6-2.1c-0.6-0.7-1.7-0.7-2.2,0c-0.3,0.4-0.6,1-0.3,2.3c0.2,0.9,0.6,2.1,1.3,3.4c-0.3,1.3-0.7,2.5-1.2,3.6
			c-3.7,0.7-5.2,2.9-5.1,4.3C5,23.5,5.6,24,6.3,24c0,0,0,0,0,0c0.5,0,1.1-0.3,1.8-0.8c1.1-0.9,2.1-2.1,2.9-3.6
			c1.1-0.1,2.4-0.1,3.4,0c1,1.2,2,2,2.9,2.4c0.5,0.2,0.9,0.3,1.3,0.3c0.9,0,1.3-0.5,1.3-1.1c0.1-1.1-1.4-2.4-4.9-2.8
			C14.2,17.4,13.4,16.1,12.7,14.7z M7.3,22.2c-0.6,0.5-0.9,0.5-1,0.5l0,0c0,0-0.1-0.3,0.1-0.6c0.4-0.8,1.3-1.7,3-2.2
			C8.7,20.9,8.1,21.6,7.3,22.2z M11.3,11.2c-0.1-0.6-0.1-1,0.1-1.2c0.1-0.1,0.1-0.1,0.1-0.1c0.1,0,0.1,0,0.2,0.1
			c0.1,0.1,0.3,0.4,0.3,1.1c0,0.3-0.1,0.9-0.2,1.5C11.6,12.1,11.4,11.6,11.3,11.2z M12.3,18.2c-0.2,0-0.5,0-0.7,0
			c0.2-0.6,0.4-1.2,0.6-1.8c0.4,0.6,0.8,1.2,1.2,1.8C13,18.3,12.7,18.2,12.3,18.2z M18.7,21.1c-0.1,0-0.4,0-0.8-0.2
			c-0.4-0.2-0.9-0.5-1.3-0.9C17.9,20.3,18.5,20.8,18.7,21.1z"/>
	</g>
</g>
</svg>
