<?xml version="1.0" encoding="utf-8"?>
<!-- Generator: Adobe Illustrator 19.2.1, SVG Export Plug-In . SVG Version: 6.00 Build 0)  -->
<svg version="1.1" id="Layer_1" xmlns="http://www.w3.org/2000/svg" xmlns:xlink="http://www.w3.org/1999/xlink" x="0px" y="0px"
	 viewBox="0 0 24 29" style="enable-background:new 0 0 24 29;" xml:space="preserve">
<style type="text/css">
	.st0{fill-rule:evenodd;clip-rule:evenodd;fill:#2C5898;}
</style>
<g>
	<g>
		<path class="st0" d="M14.4,19.5c-0.1-0.8-0.3-1.5-0.4-1.9L12.7,13h-1.3l-1.3,4.6c-0.1,0.2-0.1,0.5-0.2,0.9c-0.1,0.4-0.1,0.7-0.2,1
			c-0.1-0.6-0.2-1.2-0.4-1.9L8.2,13H6.9l1,3.9l1,3.9h1.4l1.3-4.7c0.1-0.2,0.1-0.5,0.2-0.8c0.1-0.4,0.1-0.7,0.2-0.9
			c0,0.2,0.1,0.4,0.2,0.8c0.1,0.4,0.2,0.7,0.2,0.9l1.3,4.7h1.4l2-7.9h-1.3l-1.1,4.6C14.5,18.3,14.4,19,14.4,19.5z M23.8,7.7
			l-7.6-7.6C16.1,0.1,16,0,15.8,0H1.9C0.8,0,0,0.8,0,1.9v25.2c0,1,0.8,1.9,1.9,1.9h20.2c1,0,1.9-0.8,1.9-1.9V8.2
			C24,8,23.9,7.9,23.8,7.7z M16.4,2.2l5.4,5.4h-5.4V2.2z M22.7,27.1c0,0.3-0.3,0.6-0.6,0.6H1.9c-0.3,0-0.6-0.3-0.6-0.6V1.9
			c0-0.3,0.3-0.6,0.6-0.6h13.3v6.9c0,0.3,0.3,0.6,0.6,0.6h6.9V27.1z"/>
	</g>
</g>
</svg>
