<?xml version="1.0" encoding="utf-8"?>
<!-- Generator: Adobe Illustrator 19.2.1, SVG Export Plug-In . SVG Version: 6.00 Build 0)  -->
<svg version="1.1" id="Layer_1" xmlns="http://www.w3.org/2000/svg" xmlns:xlink="http://www.w3.org/1999/xlink" x="0px" y="0px"
	 viewBox="0 0 24 29" style="enable-background:new 0 0 24 29;" xml:space="preserve">
<style type="text/css">
	.st0{fill-rule:evenodd;clip-rule:evenodd;fill:#74006D;}
</style>
<g>
	<g>
		<path class="st0" d="M10.2,14v-0.8H5.3v1h3.5l-3.6,5.3v0.8h5.1v-1H6.6L10.2,14z M11.7,20.3h1.1v-5.4h-1.1V20.3z M12.3,12.9
			c-0.2,0-0.4,0.1-0.5,0.2c-0.1,0.1-0.2,0.3-0.2,0.5c0,0.2,0.1,0.3,0.2,0.5s0.3,0.2,0.5,0.2c0.2,0,0.4-0.1,0.5-0.2
			c0.1-0.1,0.2-0.3,0.2-0.5c0-0.2-0.1-0.4-0.2-0.5C12.7,12.9,12.5,12.9,12.3,12.9z M14.8,14.9v7.8H16v-2.2c0-0.1,0-0.4-0.1-0.8H16
			c0.4,0.5,0.9,0.7,1.6,0.7c0.7,0,1.2-0.2,1.6-0.7s0.6-1.2,0.6-2.1c0-0.9-0.2-1.6-0.6-2.1c-0.4-0.5-0.9-0.7-1.6-0.7
			c-0.7,0-1.3,0.3-1.6,0.8h-0.1c-0.1-0.4-0.1-0.6-0.2-0.7H14.8z M16,17.5c0-0.6,0.1-1,0.3-1.3c0.2-0.3,0.5-0.4,1-0.4
			c0.4,0,0.7,0.2,0.9,0.5c0.2,0.3,0.3,0.8,0.3,1.4c0,0.6-0.1,1.1-0.3,1.4c-0.2,0.3-0.5,0.5-0.9,0.5c-0.5,0-0.8-0.1-1-0.4
			c-0.2-0.3-0.3-0.8-0.3-1.4V17.5z M23.8,7.7l-7.6-7.6C16.1,0.1,16,0,15.8,0H1.9C0.9,0,0,0.8,0,1.9v25.2c0,1,0.8,1.9,1.9,1.9h20.2
			c1,0,1.9-0.8,1.9-1.9V8.2C24,8,23.9,7.9,23.8,7.7z M16.4,2.2l5.4,5.4h-5.4V2.2z M22.8,27.1c0,0.3-0.3,0.6-0.6,0.6H1.9
			c-0.3,0-0.6-0.3-0.6-0.6V1.9c0-0.3,0.3-0.6,0.6-0.6h13.3v6.9c0,0.3,0.3,0.6,0.6,0.6h6.9V27.1z"/>
	</g>
</g>
</svg>
