<?xml version="1.0" encoding="utf-8"?>
<!-- Generator: Adobe Illustrator 18.1.0, SVG Export Plug-In . SVG Version: 6.00 Build 0)  -->
<svg version="1.1" id="Layer_1" xmlns="http://www.w3.org/2000/svg" xmlns:xlink="http://www.w3.org/1999/xlink" x="0px" y="0px"
	 viewBox="0 0 595.3 595.3" enable-background="new 0 0 595.3 595.3" xml:space="preserve">
<g>
	<g>
		<path fill="#FFFFFF" d="M462.5,0H132.8c-27.5,0-48.8,21.4-48.8,48.8v497.6c0,27.5,21.4,48.8,48.8,48.8h329.7
			c27.5,0,48.8-21.4,48.8-48.8V48.8C511.3,21.4,490,0,462.5,0z M486.9,546.4c0,12.2-9.2,24.4-24.4,24.4H132.8
			c-12.2,0-24.4-9.2-24.4-24.4V48.8c0-12.2,9.2-24.4,24.4-24.4h329.7c12.2,0,24.4,9.2,24.4,24.4L486.9,546.4L486.9,546.4z
			 M196.9,247.3c-21.4,0-36.6,18.3-36.6,36.6c0,21.4,15.3,36.6,36.6,36.6s36.6-15.3,36.6-36.6C233.5,265.6,218.3,247.3,196.9,247.3z
			 M196.9,296.1c-6.1,0-12.2-6.1-12.2-12.2s6.1-9.2,12.2-9.2s12.2,6.1,12.2,12.2C209.1,293.1,203,296.1,196.9,296.1z M297.6,247.3
			c-21.4,0-36.6,15.3-36.6,36.6s15.3,36.6,36.6,36.6s36.6-15.3,36.6-36.6C334.3,265.6,319,247.3,297.6,247.3z M297.6,296.1
			c-6.1,0-12.2-6.1-12.2-12.2s6.1-9.2,12.2-9.2s12.2,6.1,12.2,12.2C309.9,293.1,303.7,296.1,297.6,296.1z M398.4,247.3
			c-21.4,0-36.6,15.3-36.6,36.6s15.3,36.6,36.6,36.6c21.4,0,36.6-15.3,36.6-36.6C435,265.6,419.7,247.3,398.4,247.3z M398.4,296.1
			c-6.1,0-12.2-6.1-12.2-12.2s6.1-9.2,12.2-9.2c6.1,0,12.2,6.1,12.2,12.2C410.6,293.1,404.5,296.1,398.4,296.1z M196.9,348
			c-21.4,0-36.6,15.3-36.6,36.6c0,21.4,15.3,36.6,36.6,36.6s36.6-15.3,36.6-36.6C233.5,363.3,218.3,348,196.9,348z M196.9,396.9
			c-6.1,0-12.2-6.1-12.2-12.2c0-6.1,6.1-12.2,12.2-12.2s12.2,6.1,12.2,12.2C209.1,390.7,203,396.9,196.9,396.9z M297.6,348
			c-21.4,0-36.6,15.3-36.6,36.6c0,21.4,15.3,36.6,36.6,36.6s36.6-15.3,36.6-36.6C334.3,363.3,319,348,297.6,348z M297.6,396.9
			c-6.1,0-12.2-6.1-12.2-12.2c0-6.1,6.1-12.2,12.2-12.2s12.2,6.1,12.2,12.2C309.9,390.7,303.7,396.9,297.6,396.9z M398.4,348
			c-21.4,0-36.6,15.3-36.6,36.6c0,21.4,15.3,36.6,36.6,36.6c21.4,0,36.6-15.3,36.6-36.6C435,363.3,419.7,348,398.4,348z
			 M398.4,396.9c-6.1,0-12.2-6.1-12.2-12.2c0-6.1,6.1-12.2,12.2-12.2c6.1,0,12.2,6.1,12.2,12.2C410.6,390.7,404.5,396.9,398.4,396.9
			z M196.9,445.7c-21.4,0-36.6,15.3-36.6,36.6s15.3,36.6,36.6,36.6s36.6-15.3,36.6-36.6C233.5,464,218.3,445.7,196.9,445.7z
			 M196.9,494.5c-6.1,0-12.2-6.1-12.2-12.2s6.1-12.2,12.2-12.2s12.2,6.1,12.2,12.2S203,494.5,196.9,494.5z M297.6,445.7
			c-21.4,0-36.6,15.3-36.6,36.6s15.3,36.6,36.6,36.6s36.6-15.3,36.6-36.6C334.3,464,319,445.7,297.6,445.7z M297.6,494.5
			c-6.1,0-12.2-6.1-12.2-12.2s6.1-12.2,12.2-12.2s12.2,6.1,12.2,12.2S303.7,494.5,297.6,494.5z M398.4,445.7
			c-21.4,0-36.6,15.3-36.6,36.6S377,519,398.4,519c21.4,0,36.6-15.3,36.6-36.6C435,464,419.7,445.7,398.4,445.7z M398.4,494.5
			c-6.1,0-12.2-6.1-12.2-12.2s6.1-12.2,12.2-12.2c6.1,0,12.2,6.1,12.2,12.2S404.5,494.5,398.4,494.5z M422.8,76.3H169.4
			c-6.1,0-12.2,6.1-12.2,12.2v97.7c0,6.1,6.1,12.2,12.2,12.2h253.4c6.1,0,12.2-6.1,12.2-12.2V88.5C435,79.4,428.9,76.3,422.8,76.3z
			 M410.6,174H184.7v-73.3h225.9V174z"/>
	</g>
</g>
</svg>
