<?xml version="1.0" encoding="utf-8"?>
<!-- Generator: Adobe Illustrator 19.2.1, SVG Export Plug-In . SVG Version: 6.00 Build 0)  -->
<svg version="1.1" id="Layer_1" xmlns="http://www.w3.org/2000/svg" xmlns:xlink="http://www.w3.org/1999/xlink" x="0px" y="0px"
	 viewBox="0 0 40 44" width = '82px' height='90px' style="enable-background:new 0 0 40 44;" xml:space="preserve">
<style type="text/css">
	.st0{fill-rule:evenodd;clip-rule:evenodd;fill:#0432DA;}
	.st1{fill-rule:evenodd;clip-rule:evenodd;fill:#FFFFFF;}
</style>
<path class="st0" d="M1.4,0h37.2C39.4,0,40,0.7,40,1.5v31c0,0.8-0.6,1-1.4,1.5L20.2,44L1.4,34C0.7,33.5,0,33.3,0,32.5v-31
	C0,0.7,0.6,0,1.4,0z"/>
<path class="st1" d="M16.6,25.5l-6-10.5l2.6-4.5l8.6,15H16.6z"/>
<path class="st1" d="M13.1,19.4l-3.5,6.1H4.5L8,19.4L13.1,19.4z"/>
<path class="st1" d="M23.5,25.5L23.5,25.5L17.4,15l2.6-4.5L26,21L23.5,25.5z"/>
<path class="st1" d="M30.3,25.5l-6-10.5l2.6-4.5l8.6,15H30.3z"/>
</svg>
