<?xml version="1.0" encoding="utf-8"?>
<!-- Generator: Adobe Illustrator 19.2.1, SVG Export Plug-In . SVG Version: 6.00 Build 0)  -->
<svg version="1.1" id="Finance" xmlns="http://www.w3.org/2000/svg" xmlns:xlink="http://www.w3.org/1999/xlink" x="0px" y="0px"
	 viewBox="0 0 194.9 180.4" style="enable-background:new 0 0 194.9 180.4;" xml:space="preserve">
<style type="text/css">
	.st0{fill:none;stroke:#7FBCFF;stroke-width:7;stroke-linecap:round;stroke-linejoin:round;stroke-miterlimit:10;}
</style>
<g>
	<path class="st0" d="M59.3,45.2H31.6l13.9,83.1h119.9c6.8,0,12.6-4.9,13.7-11.6L191,45.2h-20.8"/>
	<path class="st0" d="M173.6,149.1H48.3c-5.4,0-9.8-4.4-9.8-9.8l0,0c0-2.6,1-5.1,2.9-6.9l4.1-4.1"/>
	<path class="st0" d="M3.9,17.4h15.4c3.2,0,6,2.2,6.7,5.2l5.6,22.5"/>
	<line class="st0" x1="159.8" y1="86.7" x2="152.9" y2="86.7"/>
	<line class="st0" x1="69.7" y1="86.7" x2="62.8" y2="86.7"/>
	<line class="st0" x1="159.8" y1="107.5" x2="145.9" y2="107.5"/>
	<line class="st0" x1="132.1" y1="107.5" x2="118.2" y2="107.5"/>
	<line class="st0" x1="104.4" y1="107.5" x2="90.5" y2="107.5"/>
	<line class="st0" x1="76.6" y1="107.5" x2="62.8" y2="107.5"/>
	<line class="st0" x1="145.9" y1="149.1" x2="145.9" y2="156"/>
	<circle class="st0" cx="145.9" cy="166.4" r="10.4"/>
	<line class="st0" x1="62.8" y1="149.1" x2="62.8" y2="156"/>
	<circle class="st0" cx="62.8" cy="166.4" r="10.4"/>
	<circle class="st0" cx="114.8" cy="45.2" r="41.6"/>
	<line class="st0" x1="128.6" y1="31.3" x2="100.9" y2="59"/>
	<line class="st0" x1="100.9" y1="31.3" x2="128.6" y2="59"/>
</g>
</svg>
