<?xml version="1.0" encoding="utf-8"?>
<!-- Generator: Adobe Illustrator 19.2.1, SVG Export Plug-In . SVG Version: 6.00 Build 0)  -->
<svg version="1.1" id="Layer_1" xmlns="http://www.w3.org/2000/svg" xmlns:xlink="http://www.w3.org/1999/xlink" x="0px" y="0px"
	 viewBox="0 0 36.8 36.2" style="enable-background:new 0 0 36.8 36.2;" xml:space="preserve">
<style type="text/css">
	.st0{fill-rule:evenodd;clip-rule:evenodd;fill:#0079FF;}
</style>
<g>
	<g>
		<path class="st0" d="M4,30.5h1.6v-1.6H4V30.5z M2.4,28.1h3.2v-1.6H2.4V28.1z M0,25.7h5.6v-1.6H0V25.7z M24,32.9h-4.8
			c-0.4,0-0.8,0.4-0.8,0.8c0,0.4,0.4,0.8,0.8,0.8H24c0.4,0,0.8-0.4,0.8-0.8C24.8,33.3,24.4,32.9,24,32.9z M34.3,20.2l-7.9-6.1V9.6
			c0-1.3-1.1-2.4-2.4-2.4h-4.8c-0.4,0-0.8,0.4-0.8,0.8c0,0.4,0.4,0.8,0.8,0.8H24c0.4,0,0.8,0.4,0.8,0.8v16.1c0,0.4-0.4,0.8-0.8,0.8
			H8v-7.2c0-0.4-0.4-0.8-0.8-0.8c-0.4,0-0.8,0.4-0.8,0.8v13.7c0,0.9,0.7,1.6,1.6,1.6h1.6c0.4,0,0.8-0.4,0.8-0.8
			c0-0.4-0.4-0.8-0.8-0.8H8v-4.8h16c1.3,0,2.4-1.1,2.4-2.4v-9.6l6.9,5.4c1.2,0.9,1.9,2.3,1.9,3.8v7.7h-1.6c-0.4,0-0.8,0.4-0.8,0.8
			c0,0.4,0.4,0.8,0.8,0.8h1.6c0.9,0,1.6-0.7,1.6-1.6v-7.7C36.8,23.3,35.9,21.4,34.3,20.2z M8,10.4h4.8c0.4,0,0.8-0.4,0.8-0.8
			c0-0.4-0.4-0.8-0.8-0.8h-4v-4C8.8,4.4,8.4,4,8,4C7.6,4,7.2,4.4,7.2,4.8v4.8C7.2,10.1,7.6,10.4,8,10.4z M8.8,17.7
			c4.9,0,8.8-4,8.8-8.8C17.6,4,13.7,0,8.8,0C3.9,0,0,4,0,8.8C0,13.7,3.9,17.7,8.8,17.7z M8.8,1.6c4,0,7.2,3.2,7.2,7.2
			c0,4-3.2,7.2-7.2,7.2c-4,0-7.2-3.2-7.2-7.2C1.6,4.9,4.8,1.6,8.8,1.6z M14.4,29.7c-1.8,0-3.2,1.4-3.2,3.2c0,1.8,1.4,3.2,3.2,3.2
			s3.2-1.4,3.2-3.2C17.6,31.2,16.2,29.7,14.4,29.7z M14.4,34.5c-0.9,0-1.6-0.7-1.6-1.6c0-0.9,0.7-1.6,1.6-1.6c0.9,0,1.6,0.7,1.6,1.6
			C16,33.8,15.3,34.5,14.4,34.5z M28.8,29.7c-1.8,0-3.2,1.4-3.2,3.2c0,1.8,1.4,3.2,3.2,3.2c1.8,0,3.2-1.4,3.2-3.2
			C32,31.2,30.6,29.7,28.8,29.7z M28.8,34.5c-0.9,0-1.6-0.7-1.6-1.6c0-0.9,0.7-1.6,1.6-1.6c0.9,0,1.6,0.7,1.6,1.6
			C30.4,33.8,29.7,34.5,28.8,34.5z"/>
	</g>
</g>
</svg>
